<?xml version='1.0' encoding='us-ascii'?>
<svg height="1000" width="1000" xmlns="http://www.w3.org/2000/svg"><defs><radialGradient cx="40%" cy="60%" id="grad-O" r="50%"><stop offset="0" style="stop-color:#ff6666" /><stop offset="1" style="stop-color:#9f0909" /></radialGradient><radialGradient cx="40%" cy="60%" id="grad-Sm" r="50%"><stop offset="0" style="stop-color:#6677ff" /><stop offset="1" style="stop-color:#09199f" /></radialGradient><radialGradient cx="40%" cy="60%" id="grad-Fe" r="50%"><stop offset="0" style="stop-color:#ffc866" /><stop offset="1" style="stop-color:#9f6909" /></radialGradient><radialGradient cx="40%" cy="60%" id="grad-As" r="50%"><stop offset="0" style="stop-color:#9bff66" /><stop offset="1" style="stop-color:#3d9f09" /></radialGradient></defs><g transform="matrix(1,0,0,-1,0,1000)"><circle r="40" style="fill:url(#grad-Sm);stroke:#051066;stroke-width:3" transform="translate(446.781,138.353)" x="0" y="0" /><path d="M 412.161,198.91 432.472,156.605 432.472,156.605 432.832,156.012 433.305,155.495 433.879,155.068 434.537,154.741 435.261,154.524 436.033,154.423 436.83,154.44 437.631,154.576 438.415,154.826 439.159,155.183 439.844,155.638 440.451,156.179 440.963,156.79 441.367,157.455 441.651,158.156 441.807,158.874 441.832,159.589 441.724,160.281 441.487,160.933 441.487,160.933 421.176,203.238 z" style="fill:#ccc;stroke:#888;stroke-width:2" /><circle r="40" style="fill:url(#grad-As);stroke:#276605;stroke-width:3" transform="translate(446.781,437.795)" x="0" y="0" /><path d="M 412.161,498.352 432.472,456.046 432.472,456.046 432.832,455.454 433.305,454.937 433.879,454.509 434.537,454.183 435.261,453.966 436.033,453.865 436.83,453.882 437.631,454.018 438.415,454.267 439.159,454.625 439.844,455.08 440.451,455.621 440.963,456.232 441.367,456.897 441.651,457.598 441.807,458.316 441.832,459.031 441.724,459.723 441.487,460.374 441.487,460.374 421.176,502.68 z" style="fill:#ccc;stroke:#888;stroke-width:2" /><circle r="40" style="fill:url(#grad-Sm);stroke:#051066;stroke-width:3" transform="translate(446.781,737.237)" x="0" y="0" /><path d="M 412.161,797.794 432.472,755.488 432.472,755.488 432.832,754.896 433.305,754.379 433.879,753.951 434.537,753.625 435.261,753.408 436.033,753.307 436.83,753.324 437.631,753.459 438.415,753.709 439.159,754.067 439.844,754.522 440.451,755.063 440.963,755.674 441.367,756.339 441.651,757.04 441.807,757.758 441.832,758.473 441.724,759.165 441.487,759.816 441.487,759.816 421.176,802.122 z" style="fill:#ccc;stroke:#888;stroke-width:2" /><circle r="40" style="fill:url(#grad-Sm);stroke:#051066;stroke-width:3" transform="translate(712.875,130.742)" x="0" y="0" /><path d="M 678.255,191.299 698.566,148.993 698.566,148.993 698.926,148.401 699.399,147.884 699.973,147.456 700.631,147.13 701.355,146.913 702.127,146.812 702.924,146.829 703.725,146.964 704.509,147.214 705.253,147.572 705.938,148.027 706.545,148.568 707.057,149.179 707.461,149.844 707.745,150.545 707.901,151.263 707.926,151.978 707.818,152.67 707.581,153.321 707.581,153.321 687.27,195.627 z" style="fill:#ccc;stroke:#888;stroke-width:2" /><circle r="40" style="fill:url(#grad-As);stroke:#276605;stroke-width:3" transform="translate(712.875,430.184)" x="0" y="0" /><path d="M 678.255,490.741 698.566,448.435 698.566,448.435 698.926,447.843 699.399,447.326 699.973,446.898 700.631,446.571 701.355,446.354 702.127,446.253 702.924,446.271 703.725,446.406 704.509,446.656 705.253,447.014 705.938,447.469 706.545,448.009 707.057,448.621 707.461,449.286 707.745,449.987 707.901,450.705 707.926,451.419 707.818,452.112 707.581,452.763 707.581,452.763 687.27,495.069 z" style="fill:#ccc;stroke:#888;stroke-width:2" /><circle r="40" style="fill:url(#grad-Sm);stroke:#051066;stroke-width:3" transform="translate(273.82,321.116)" x="0" y="0" /><path d="M 377.193,249.956 309.489,300.654 309.489,300.654 309.329,300.688 309.091,300.613 308.783,300.429 308.412,300.143 307.989,299.761 307.525,299.294 307.033,298.755 306.526,298.159 306.018,297.522 305.523,296.861 305.054,296.194 304.625,295.54 304.247,294.916 303.929,294.34 303.682,293.826 303.511,293.39 303.422,293.042 303.416,292.793 303.495,292.649 303.495,292.649 371.199,241.952 z" style="fill:#ccc;stroke:#888;stroke-width:2" /><circle r="40" style="fill:url(#grad-Sm);stroke:#051066;stroke-width:3" transform="translate(712.875,729.626)" x="0" y="0" /><path d="M 678.255,790.182 698.566,747.877 698.566,747.877 698.926,747.285 699.399,746.768 699.973,746.34 700.631,746.013 701.355,745.796 702.127,745.695 702.924,745.713 703.725,745.848 704.509,746.098 705.253,746.455 705.938,746.911 706.545,747.451 707.057,748.062 707.461,748.728 707.745,749.429 707.901,750.146 707.926,750.861 707.818,751.554 707.581,752.205 707.581,752.205 687.27,794.511 z" style="fill:#ccc;stroke:#888;stroke-width:2" /><circle r="40" style="fill:url(#grad-As);stroke:#276605;stroke-width:3" transform="translate(273.82,620.558)" x="0" y="0" /><path d="M 377.193,549.398 309.489,600.096 309.489,600.096 309.329,600.13 309.091,600.055 308.783,599.871 308.412,599.585 307.989,599.203 307.525,598.736 307.033,598.197 306.526,597.601 306.018,596.964 305.523,596.303 305.054,595.636 304.625,594.982 304.247,594.358 303.929,593.781 303.682,593.268 303.511,592.831 303.422,592.484 303.416,592.235 303.495,592.091 303.495,592.091 371.199,541.394 z" style="fill:#ccc;stroke:#888;stroke-width:2" /><circle r="40" style="fill:url(#grad-O);stroke:#660505;stroke-width:3" transform="translate(406.867,221.489)" x="0" y="0" /><path d="M 381.447,137.902 401.758,193.118 401.758,193.118 401.901,193.705 401.913,194.323 401.792,194.955 401.542,195.584 401.17,196.193 400.686,196.765 400.104,197.285 399.438,197.738 398.708,198.112 397.933,198.397 397.134,198.586 396.334,198.672 395.553,198.653 394.814,198.531 394.136,198.308 393.538,197.991 393.036,197.588 392.644,197.11 392.373,196.57 392.373,196.57 372.062,141.354 z" style="fill:#ccc;stroke:#888;stroke-width:2" /><path d="M 504.398,295.022 436.695,248.197 436.695,248.197 436.537,248.006 436.462,247.707 436.471,247.31 436.563,246.825 436.737,246.265 436.987,245.645 437.306,244.983 437.687,244.297 438.118,243.604 438.587,242.925 439.083,242.278 439.591,241.679 440.098,241.147 440.589,240.694 441.052,240.334 441.473,240.077 441.842,239.928 442.148,239.893 442.383,239.973 442.383,239.973 510.087,286.797 z" style="fill:#ccc;stroke:#888;stroke-width:2" /><circle r="40" style="fill:url(#grad-Sm);stroke:#051066;stroke-width:3" transform="translate(273.82,920)" x="0" y="0" /><path d="M 377.193,848.84 309.489,899.537 309.489,899.537 309.329,899.572 309.091,899.497 308.783,899.313 308.412,899.026 307.989,898.645 307.525,898.178 307.033,897.639 306.526,897.043 306.018,896.406 305.523,895.745 305.054,895.078 304.625,894.424 304.247,893.8 303.929,893.223 303.682,892.71 303.511,892.273 303.422,891.926 303.416,891.677 303.495,891.533 303.495,891.533 371.199,840.835 z" style="fill:#ccc;stroke:#888;stroke-width:2" /><circle r="40" style="fill:url(#grad-Fe);stroke:#664305;stroke-width:3" transform="translate(406.867,520.931)" x="0" y="0" /><path d="M 381.447,437.343 401.758,492.56 401.758,492.56 401.901,493.146 401.913,493.764 401.792,494.397 401.542,495.026 401.17,495.635 400.686,496.207 400.104,496.727 399.438,497.18 398.708,497.554 397.933,497.839 397.134,498.027 396.334,498.114 395.553,498.095 394.814,497.973 394.136,497.75 393.538,497.433 393.036,497.03 392.644,496.552 392.373,496.012 392.373,496.012 372.062,440.796 z" style="fill:#ccc;stroke:#888;stroke-width:2" /><path d="M 504.398,594.463 436.695,547.639 436.695,547.639 436.537,547.448 436.462,547.149 436.471,546.752 436.563,546.266 436.737,545.706 436.987,545.087 437.306,544.425 437.687,543.738 438.118,543.046 438.587,542.367 439.083,541.719 439.591,541.121 440.098,540.589 440.589,540.136 441.052,539.776 441.473,539.518 441.842,539.37 442.148,539.335 442.383,539.415 442.383,539.415 510.087,586.239 z" style="fill:#ccc;stroke:#888;stroke-width:2" /><circle r="40" style="fill:url(#grad-Sm);stroke:#051066;stroke-width:3" transform="translate(539.914,313.505)" x="0" y="0" /><path d="M 643.287,242.345 575.583,293.043 575.583,293.043 575.423,293.077 575.185,293.002 574.877,292.818 574.506,292.531 574.083,292.15 573.619,291.683 573.127,291.144 572.62,290.548 572.112,289.911 571.617,289.25 571.148,288.583 570.719,287.929 570.341,287.305 570.023,286.728 569.776,286.215 569.606,285.778 569.516,285.431 569.51,285.182 569.589,285.038 569.589,285.038 637.293,234.34 z" style="fill:#ccc;stroke:#888;stroke-width:2" /><path d="M 514.494,229.917 534.805,285.133 534.805,285.133 534.948,285.72 534.96,286.338 534.839,286.971 534.589,287.6 534.217,288.209 533.733,288.781 533.151,289.301 532.485,289.754 531.755,290.128 530.98,290.413 530.181,290.601 529.381,290.687 528.6,290.669 527.861,290.547 527.183,290.324 526.585,290.007 526.083,289.604 525.691,289.126 525.42,288.586 525.42,288.586 505.109,233.37 z" style="fill:#ccc;stroke:#888;stroke-width:2" /><circle r="40" style="fill:url(#grad-O);stroke:#660505;stroke-width:3" transform="translate(406.867,820.373)" x="0" y="0" /><path d="M 381.447,736.785 401.758,792.001 401.758,792.001 401.901,792.588 401.913,793.206 401.792,793.838 401.542,794.468 401.17,795.077 400.686,795.649 400.104,796.169 399.438,796.622 398.708,796.996 397.933,797.281 397.134,797.469 396.334,797.555 395.553,797.537 394.814,797.415 394.136,797.192 393.538,796.875 393.036,796.472 392.644,795.994 392.373,795.454 392.373,795.454 372.062,740.238 z" style="fill:#ccc;stroke:#888;stroke-width:2" /><path d="M 504.398,893.905 436.695,847.081 436.695,847.081 436.537,846.889 436.462,846.591 436.471,846.194 436.563,845.708 436.737,845.148 436.987,844.529 437.306,843.867 437.687,843.18 438.118,842.488 438.587,841.809 439.083,841.161 439.591,840.563 440.098,840.03 440.589,839.578 441.052,839.218 441.473,838.96 441.842,838.812 442.148,838.777 442.383,838.856 442.383,838.856 510.087,885.681 z" style="fill:#ccc;stroke:#888;stroke-width:2" /><circle r="40" style="fill:url(#grad-As);stroke:#276605;stroke-width:3" transform="translate(539.914,612.947)" x="0" y="0" /><path d="M 643.287,541.787 575.583,592.484 575.583,592.484 575.423,592.519 575.185,592.443 574.877,592.26 574.506,591.973 574.083,591.591 573.619,591.125 573.127,590.586 572.62,589.99 572.112,589.353 571.617,588.692 571.148,588.025 570.719,587.371 570.341,586.747 570.023,586.17 569.776,585.657 569.606,585.22 569.516,584.873 569.51,584.624 569.589,584.48 569.589,584.48 637.293,533.782 z" style="fill:#ccc;stroke:#888;stroke-width:2" /><path d="M 514.494,529.359 534.805,584.575 534.805,584.575 534.948,585.162 534.96,585.78 534.839,586.412 534.589,587.042 534.217,587.651 533.733,588.223 533.151,588.742 532.485,589.196 531.755,589.57 530.98,589.855 530.181,590.043 529.381,590.129 528.6,590.111 527.861,589.989 527.183,589.766 526.585,589.449 526.083,589.045 525.691,588.567 525.42,588.028 525.42,588.028 505.109,532.811 z" style="fill:#ccc;stroke:#888;stroke-width:2" /><circle r="40" style="fill:url(#grad-O);stroke:#660505;stroke-width:3" transform="translate(672.961,213.878)" x="0" y="0" /><path d="M 647.541,130.29 667.852,185.506 667.852,185.506 667.995,186.093 668.007,186.711 667.886,187.343 667.636,187.973 667.264,188.582 666.78,189.154 666.198,189.674 665.532,190.127 664.802,190.501 664.027,190.786 663.228,190.974 662.428,191.06 661.647,191.042 660.908,190.92 660.23,190.697 659.632,190.38 659.13,189.977 658.738,189.499 658.467,188.959 658.467,188.959 638.156,133.743 z" style="fill:#ccc;stroke:#888;stroke-width:2" /><path d="M 770.493,287.41 702.789,240.586 702.789,240.586 702.631,240.394 702.556,240.096 702.565,239.699 702.657,239.213 702.831,238.653 703.081,238.034 703.4,237.372 703.781,236.685 704.212,235.993 704.681,235.314 705.177,234.666 705.685,234.068 706.192,233.535 706.683,233.083 707.146,232.723 707.568,232.465 707.936,232.317 708.242,232.282 708.477,232.361 708.477,232.361 776.181,279.186 z" style="fill:#ccc;stroke:#888;stroke-width:2" /><circle r="40" style="fill:url(#grad-Sm);stroke:#051066;stroke-width:3" transform="translate(539.914,912.389)" x="0" y="0" /><path d="M 643.287,841.229 575.583,891.926 575.583,891.926 575.423,891.961 575.185,891.885 574.877,891.702 574.506,891.415 574.083,891.033 573.619,890.567 573.127,890.028 572.62,889.432 572.112,888.794 571.617,888.133 571.148,887.467 570.719,886.812 570.341,886.188 570.023,885.612 569.776,885.098 569.606,884.662 569.516,884.314 569.51,884.065 569.589,883.922 569.589,883.922 637.293,833.224 z" style="fill:#ccc;stroke:#888;stroke-width:2" /><path d="M 514.494,828.801 534.805,884.017 534.805,884.017 534.948,884.604 534.96,885.222 534.839,885.854 534.589,886.483 534.217,887.092 533.733,887.665 533.151,888.184 532.485,888.637 531.755,889.012 530.98,889.297 530.181,889.485 529.381,889.571 528.6,889.553 527.861,889.431 527.183,889.208 526.585,888.89 526.083,888.487 525.691,888.009 525.42,887.469 525.42,887.469 505.109,832.253 z" style="fill:#ccc;stroke:#888;stroke-width:2" /><circle r="40" style="fill:url(#grad-Fe);stroke:#664305;stroke-width:3" transform="translate(672.961,513.32)" x="0" y="0" /><path d="M 770.493,586.852 702.789,540.028 702.789,540.028 702.631,539.836 702.556,539.538 702.565,539.14 702.657,538.655 702.831,538.095 703.081,537.476 703.4,536.814 703.781,536.127 704.212,535.435 704.681,534.756 705.177,534.108 705.685,533.51 706.192,532.977 706.683,532.525 707.146,532.165 707.568,531.907 707.936,531.759 708.242,531.724 708.477,531.803 708.477,531.803 776.181,578.628 z" style="fill:#ccc;stroke:#888;stroke-width:2" /><path d="M 647.541,429.732 667.852,484.948 667.852,484.948 667.995,485.535 668.007,486.153 667.886,486.785 667.636,487.414 667.264,488.023 666.78,488.596 666.198,489.115 665.532,489.569 664.802,489.943 664.027,490.228 663.228,490.416 662.428,490.502 661.647,490.484 660.908,490.362 660.23,490.139 659.632,489.822 659.13,489.418 658.738,488.94 658.467,488.401 658.467,488.401 638.156,433.184 z" style="fill:#ccc;stroke:#888;stroke-width:2" /><circle r="40" style="fill:url(#grad-Sm);stroke:#051066;stroke-width:3" transform="translate(366.953,112.982)" x="0" y="0" /><path d="M 464.484,186.515 396.78,139.69 396.78,139.69 396.623,139.499 396.548,139.2 396.557,138.803 396.649,138.318 396.823,137.758 397.073,137.138 397.392,136.476 397.773,135.79 398.204,135.097 398.673,134.418 399.169,133.771 399.677,133.172 400.184,132.64 400.675,132.187 401.138,131.827 401.559,131.57 401.928,131.421 402.234,131.386 402.469,131.466 402.469,131.466 470.173,178.29 z" style="fill:#ccc;stroke:#888;stroke-width:2" /><path d="M 332.333,173.539 352.644,131.233 352.644,131.233 353.004,130.641 353.477,130.124 354.05,129.697 354.708,129.37 355.433,129.153 356.204,129.052 357.002,129.069 357.803,129.205 358.587,129.455 359.331,129.812 360.016,130.267 360.623,130.808 361.135,131.419 361.539,132.084 361.822,132.785 361.979,133.503 362.004,134.218 361.896,134.91 361.659,135.562 361.659,135.562 341.348,177.867 z" style="fill:#ccc;stroke:#888;stroke-width:2" /><circle r="40" style="fill:url(#grad-Sm);stroke:#051066;stroke-width:3" transform="translate(806.008,305.894)" x="0" y="0" /><circle r="40" style="fill:url(#grad-O);stroke:#660505;stroke-width:3" transform="translate(672.961,812.762)" x="0" y="0" /><path d="M 647.541,729.174 667.852,784.39 667.852,784.39 667.995,784.977 668.007,785.595 667.886,786.227 667.636,786.856 667.264,787.465 666.78,788.037 666.198,788.557 665.532,789.01 664.802,789.385 664.027,789.67 663.228,789.858 662.428,789.944 661.647,789.926 660.908,789.803 660.23,789.581 659.632,789.263 659.13,788.86 658.738,788.382 658.467,787.842 658.467,787.842 638.156,732.626 z" style="fill:#ccc;stroke:#888;stroke-width:2" /><path d="M 770.493,886.294 702.789,839.47 702.789,839.47 702.631,839.278 702.556,838.98 702.565,838.582 702.657,838.097 702.831,837.537 703.081,836.918 703.4,836.255 703.781,835.569 704.212,834.877 704.681,834.197 705.177,833.55 705.685,832.952 706.192,832.419 706.683,831.967 707.146,831.607 707.568,831.349 707.936,831.201 708.242,831.166 708.477,831.245 708.477,831.245 776.181,878.069 z" style="fill:#ccc;stroke:#888;stroke-width:2" /><circle r="40" style="fill:url(#grad-As);stroke:#276605;stroke-width:3" transform="translate(366.953,412.424)" x="0" y="0" /><path d="M 332.333,472.981 352.644,430.675 352.644,430.675 353.004,430.083 353.477,429.566 354.05,429.138 354.708,428.812 355.433,428.595 356.204,428.494 357.002,428.511 357.803,428.647 358.587,428.896 359.331,429.254 360.016,429.709 360.623,430.25 361.135,430.861 361.539,431.526 361.822,432.227 361.979,432.945 362.004,433.66 361.896,434.352 361.659,435.003 361.659,435.003 341.348,477.309 z" style="fill:#ccc;stroke:#888;stroke-width:2" /><path d="M 464.484,485.957 396.78,439.132 396.78,439.132 396.623,438.941 396.548,438.642 396.557,438.245 396.649,437.76 396.823,437.2 397.073,436.58 397.392,435.918 397.773,435.232 398.204,434.539 398.673,433.86 399.169,433.212 399.677,432.614 400.184,432.082 400.675,431.629 401.138,431.269 401.559,431.011 401.928,430.863 402.234,430.828 402.469,430.908 402.469,430.908 470.173,477.732 z" style="fill:#ccc;stroke:#888;stroke-width:2" /><circle r="40" style="fill:url(#grad-As);stroke:#276605;stroke-width:3" transform="translate(806.008,605.336)" x="0" y="0" /><circle r="40" style="fill:url(#grad-O);stroke:#660505;stroke-width:3" transform="translate(500,204.998)" x="0" y="0" /><path d="M 603.372,133.838 535.668,184.536 535.668,184.536 535.509,184.57 535.271,184.495 534.963,184.311 534.592,184.024 534.169,183.643 533.705,183.176 533.213,182.637 532.706,182.041 532.198,181.404 531.703,180.743 531.234,180.076 530.805,179.422 530.427,178.798 530.109,178.221 529.862,177.708 529.691,177.271 529.602,176.924 529.596,176.675 529.675,176.531 529.675,176.531 597.379,125.834 z" style="fill:#ccc;stroke:#888;stroke-width:2" /><path d="M 465.38,265.555 485.691,223.249 485.691,223.249 486.051,222.657 486.524,222.14 487.097,221.712 487.755,221.386 488.48,221.169 489.251,221.068 490.049,221.085 490.85,221.22 491.634,221.47 492.378,221.828 493.063,222.283 493.67,222.824 494.182,223.435 494.586,224.1 494.869,224.801 495.026,225.519 495.051,226.234 494.943,226.926 494.706,227.577 494.706,227.577 474.395,269.883 z" style="fill:#ccc;stroke:#888;stroke-width:2" /><circle r="40" style="fill:url(#grad-Sm);stroke:#051066;stroke-width:3" transform="translate(366.953,711.866)" x="0" y="0" /><path d="M 332.333,772.423 352.644,730.117 352.644,730.117 353.004,729.525 353.477,729.008 354.05,728.58 354.708,728.253 355.433,728.037 356.204,727.935 357.002,727.953 357.803,728.088 358.587,728.338 359.331,728.696 360.016,729.151 360.623,729.691 361.135,730.303 361.539,730.968 361.822,731.669 361.979,732.387 362.004,733.102 361.896,733.794 361.659,734.445 361.659,734.445 341.348,776.751 z" style="fill:#ccc;stroke:#888;stroke-width:2" /><path d="M 464.484,785.398 396.78,738.574 396.78,738.574 396.623,738.383 396.548,738.084 396.557,737.687 396.649,737.201 396.823,736.641 397.073,736.022 397.392,735.36 397.773,734.673 398.204,733.981 398.673,733.302 399.169,732.654 399.677,732.056 400.184,731.523 400.675,731.071 401.138,730.711 401.559,730.453 401.928,730.305 402.234,730.27 402.469,730.349 402.469,730.349 470.173,777.174 z" style="fill:#ccc;stroke:#888;stroke-width:2" /><circle r="40" style="fill:url(#grad-Sm);stroke:#051066;stroke-width:3" transform="translate(806.008,904.777)" x="0" y="0" /><circle r="40" style="fill:url(#grad-Fe);stroke:#664305;stroke-width:3" transform="translate(500,504.44)" x="0" y="0" /><path d="M 603.372,433.28 535.668,483.977 535.668,483.977 535.509,484.012 535.271,483.937 534.963,483.753 534.592,483.466 534.169,483.084 533.705,482.618 533.213,482.079 532.706,481.483 532.198,480.846 531.703,480.185 531.234,479.518 530.805,478.864 530.427,478.24 530.109,477.663 529.862,477.15 529.691,476.713 529.602,476.366 529.596,476.117 529.675,475.973 529.675,475.973 597.379,425.275 z" style="fill:#ccc;stroke:#888;stroke-width:2" /><path d="M 465.38,564.997 485.691,522.691 485.691,522.691 486.051,522.099 486.524,521.582 487.097,521.154 487.755,520.827 488.48,520.61 489.251,520.509 490.049,520.527 490.85,520.662 491.634,520.912 492.378,521.27 493.063,521.725 493.67,522.265 494.182,522.877 494.586,523.542 494.869,524.243 495.026,524.961 495.051,525.675 494.943,526.368 494.706,527.019 494.706,527.019 474.395,569.325 z" style="fill:#ccc;stroke:#888;stroke-width:2" /><circle r="40" style="fill:url(#grad-Sm);stroke:#051066;stroke-width:3" transform="translate(633.047,105.371)" x="0" y="0" /><path d="M 598.427,165.928 618.738,123.622 618.738,123.622 619.098,123.03 619.571,122.513 620.145,122.085 620.802,121.759 621.527,121.542 622.298,121.44 623.096,121.458 623.897,121.593 624.681,121.843 625.425,122.201 626.11,122.656 626.717,123.196 627.229,123.808 627.633,124.473 627.916,125.174 628.073,125.892 628.098,126.607 627.99,127.299 627.753,127.95 627.753,127.95 607.442,170.256 z" style="fill:#ccc;stroke:#888;stroke-width:2" /><circle r="40" style="fill:url(#grad-O);stroke:#660505;stroke-width:3" transform="translate(500,803.882)" x="0" y="0" /><path d="M 603.372,732.722 535.668,783.419 535.668,783.419 535.509,783.454 535.271,783.378 534.963,783.195 534.592,782.908 534.169,782.526 533.705,782.06 533.213,781.521 532.706,780.925 532.198,780.287 531.703,779.626 531.234,778.96 530.805,778.305 530.427,777.682 530.109,777.105 529.862,776.591 529.691,776.155 529.602,775.807 529.596,775.558 529.675,775.415 529.675,775.415 597.379,724.717 z" style="fill:#ccc;stroke:#888;stroke-width:2" /><path d="M 465.38,864.438 485.691,822.133 485.691,822.133 486.051,821.541 486.524,821.024 487.097,820.596 487.755,820.269 488.48,820.052 489.251,819.951 490.049,819.969 490.85,820.104 491.634,820.354 492.378,820.711 493.063,821.167 493.67,821.707 494.182,822.318 494.586,822.984 494.869,823.685 495.026,824.402 495.051,825.117 494.943,825.81 494.706,826.461 494.706,826.461 474.395,868.767 z" style="fill:#ccc;stroke:#888;stroke-width:2" /><circle r="40" style="fill:url(#grad-As);stroke:#276605;stroke-width:3" transform="translate(633.047,404.813)" x="0" y="0" /><path d="M 598.427,465.37 618.738,423.064 618.738,423.064 619.098,422.472 619.571,421.955 620.145,421.527 620.802,421.2 621.527,420.983 622.298,420.882 623.096,420.9 623.897,421.035 624.681,421.285 625.425,421.642 626.11,422.098 626.717,422.638 627.229,423.25 627.633,423.915 627.916,424.616 628.073,425.334 628.098,426.048 627.99,426.741 627.753,427.392 627.753,427.392 607.442,469.698 z" style="fill:#ccc;stroke:#888;stroke-width:2" /><circle r="40" style="fill:url(#grad-Sm);stroke:#051066;stroke-width:3" transform="translate(193.992,295.745)" x="0" y="0" /><path d="M 297.364,224.585 229.66,275.283 229.66,275.283 229.5,275.317 229.263,275.242 228.955,275.058 228.584,274.772 228.161,274.39 227.697,273.923 227.205,273.384 226.698,272.788 226.19,272.151 225.695,271.49 225.226,270.823 224.797,270.169 224.418,269.545 224.101,268.968 223.854,268.455 223.683,268.018 223.594,267.671 223.588,267.422 223.666,267.278 223.666,267.278 291.37,216.581 z" style="fill:#ccc;stroke:#888;stroke-width:2" /><circle r="40" style="fill:url(#grad-Sm);stroke:#051066;stroke-width:3" transform="translate(633.047,704.255)" x="0" y="0" /><path d="M 598.427,764.811 618.738,722.506 618.738,722.506 619.098,721.914 619.571,721.397 620.145,720.969 620.802,720.642 621.527,720.425 622.298,720.324 623.096,720.342 623.897,720.477 624.681,720.727 625.425,721.084 626.11,721.54 626.717,722.08 627.229,722.691 627.633,723.357 627.916,724.058 628.073,724.775 628.098,725.49 627.99,726.183 627.753,726.834 627.753,726.834 607.442,769.139 z" style="fill:#ccc;stroke:#888;stroke-width:2" /><circle r="40" style="fill:url(#grad-As);stroke:#276605;stroke-width:3" transform="translate(193.992,595.187)" x="0" y="0" /><path d="M 297.364,524.027 229.66,574.725 229.66,574.725 229.5,574.759 229.263,574.684 228.955,574.5 228.584,574.213 228.161,573.832 227.697,573.365 227.205,572.826 226.698,572.23 226.19,571.593 225.695,570.932 225.226,570.265 224.797,569.611 224.418,568.987 224.101,568.41 223.854,567.897 223.683,567.46 223.594,567.113 223.588,566.864 223.666,566.72 223.666,566.72 291.37,516.023 z" style="fill:#ccc;stroke:#888;stroke-width:2" /><circle r="40" style="fill:url(#grad-O);stroke:#660505;stroke-width:3" transform="translate(327.039,196.118)" x="0" y="0" /><path d="M 301.619,112.531 321.93,167.747 321.93,167.747 322.073,168.334 322.085,168.952 321.964,169.584 321.714,170.213 321.342,170.822 320.858,171.394 320.275,171.914 319.61,172.367 318.88,172.741 318.105,173.026 317.306,173.215 316.505,173.301 315.725,173.282 314.985,173.16 314.308,172.937 313.71,172.62 313.208,172.217 312.816,171.739 312.545,171.199 312.545,171.199 292.234,115.983 z" style="fill:#ccc;stroke:#888;stroke-width:2" /><path d="M 424.57,269.651 356.866,222.826 356.866,222.826 356.709,222.635 356.634,222.336 356.643,221.939 356.735,221.454 356.909,220.894 357.158,220.274 357.478,219.612 357.858,218.926 358.289,218.233 358.759,217.554 359.255,216.907 359.763,216.308 360.27,215.776 360.761,215.323 361.224,214.963 361.645,214.706 362.014,214.557 362.32,214.522 362.554,214.602 362.554,214.602 430.258,261.426 z" style="fill:#ccc;stroke:#888;stroke-width:2" /><circle r="40" style="fill:url(#grad-Sm);stroke:#051066;stroke-width:3" transform="translate(193.992,894.629)" x="0" y="0" /><path d="M 297.364,823.469 229.66,874.166 229.66,874.166 229.5,874.201 229.263,874.125 228.955,873.942 228.584,873.655 228.161,873.273 227.697,872.807 227.205,872.268 226.698,871.672 226.19,871.035 225.695,870.374 225.226,869.707 224.797,869.053 224.418,868.429 224.101,867.852 223.854,867.339 223.683,866.902 223.594,866.555 223.588,866.306 223.666,866.162 223.666,866.162 291.37,815.464 z" style="fill:#ccc;stroke:#888;stroke-width:2" /><circle r="40" style="fill:url(#grad-Fe);stroke:#664305;stroke-width:3" transform="translate(327.039,495.56)" x="0" y="0" /><path d="M 301.619,411.972 321.93,467.189 321.93,467.189 322.073,467.775 322.085,468.393 321.964,469.026 321.714,469.655 321.342,470.264 320.858,470.836 320.275,471.356 319.61,471.809 318.88,472.183 318.105,472.468 317.306,472.656 316.505,472.742 315.725,472.724 314.985,472.602 314.308,472.379 313.71,472.062 313.208,471.659 312.816,471.181 312.545,470.641 312.545,470.641 292.234,415.425 z" style="fill:#ccc;stroke:#888;stroke-width:2" /><path d="M 424.57,569.092 356.866,522.268 356.866,522.268 356.709,522.077 356.634,521.778 356.643,521.381 356.735,520.895 356.909,520.335 357.158,519.716 357.478,519.054 357.858,518.367 358.289,517.675 358.759,516.996 359.255,516.348 359.763,515.75 360.27,515.217 360.761,514.765 361.224,514.405 361.645,514.147 362.014,513.999 362.32,513.964 362.554,514.043 362.554,514.043 430.258,560.868 z" style="fill:#ccc;stroke:#888;stroke-width:2" /><circle r="40" style="fill:url(#grad-Sm);stroke:#051066;stroke-width:3" transform="translate(460.086,288.134)" x="0" y="0" /><path d="M 563.458,216.974 495.754,267.671 495.754,267.671 495.594,267.706 495.357,267.631 495.049,267.447 494.678,267.16 494.255,266.778 493.791,266.312 493.299,265.773 492.792,265.177 492.284,264.54 491.789,263.879 491.32,263.212 490.891,262.558 490.512,261.934 490.195,261.357 489.948,260.844 489.777,260.407 489.688,260.06 489.682,259.811 489.76,259.667 489.76,259.667 557.464,208.969 z" style="fill:#ccc;stroke:#888;stroke-width:2" /><circle r="40" style="fill:url(#grad-O);stroke:#660505;stroke-width:3" transform="translate(327.039,795.002)" x="0" y="0" /><path d="M 301.619,711.414 321.93,766.63 321.93,766.63 322.073,767.217 322.085,767.835 321.964,768.467 321.714,769.097 321.342,769.706 320.858,770.278 320.275,770.797 319.61,771.251 318.88,771.625 318.105,771.91 317.306,772.098 316.505,772.184 315.725,772.166 314.985,772.044 314.308,771.821 313.71,771.504 313.208,771.1 312.816,770.622 312.545,770.083 312.545,770.083 292.234,714.867 z" style="fill:#ccc;stroke:#888;stroke-width:2" /><path d="M 424.57,868.534 356.866,821.71 356.866,821.71 356.709,821.518 356.634,821.22 356.643,820.823 356.735,820.337 356.909,819.777 357.158,819.158 357.478,818.496 357.858,817.809 358.289,817.117 358.759,816.438 359.255,815.79 359.763,815.192 360.27,814.659 360.761,814.207 361.224,813.847 361.645,813.589 362.014,813.441 362.32,813.406 362.554,813.485 362.554,813.485 430.258,860.31 z" style="fill:#ccc;stroke:#888;stroke-width:2" /><circle r="40" style="fill:url(#grad-As);stroke:#276605;stroke-width:3" transform="translate(460.086,587.576)" x="0" y="0" /><path d="M 563.458,516.416 495.754,567.113 495.754,567.113 495.594,567.148 495.357,567.072 495.049,566.889 494.678,566.602 494.255,566.22 493.791,565.754 493.299,565.215 492.792,564.619 492.284,563.981 491.789,563.32 491.32,562.654 490.891,562 490.512,561.376 490.195,560.799 489.948,560.285 489.777,559.849 489.688,559.502 489.682,559.252 489.76,559.109 489.76,559.109 557.464,508.411 z" style="fill:#ccc;stroke:#888;stroke-width:2" /><circle r="40" style="fill:url(#grad-O);stroke:#660505;stroke-width:3" transform="translate(593.133,188.507)" x="0" y="0" /><path d="M 567.713,104.919 588.024,160.135 588.024,160.135 588.167,160.722 588.179,161.34 588.058,161.972 587.808,162.602 587.436,163.211 586.952,163.783 586.369,164.303 585.704,164.756 584.974,165.13 584.199,165.415 583.4,165.603 582.599,165.689 581.819,165.671 581.08,165.549 580.402,165.326 579.804,165.009 579.302,164.606 578.91,164.128 578.639,163.588 578.639,163.588 558.328,108.372 z" style="fill:#ccc;stroke:#888;stroke-width:2" /><path d="M 690.664,262.039 622.96,215.215 622.96,215.215 622.803,215.023 622.728,214.725 622.737,214.328 622.829,213.842 623.003,213.282 623.253,212.663 623.572,212.001 623.953,211.314 624.383,210.622 624.853,209.943 625.349,209.295 625.857,208.697 626.364,208.164 626.855,207.712 627.318,207.352 627.739,207.094 628.108,206.946 628.414,206.911 628.649,206.99 628.649,206.99 696.353,253.815 z" style="fill:#ccc;stroke:#888;stroke-width:2" /><circle r="40" style="fill:url(#grad-Sm);stroke:#051066;stroke-width:3" transform="translate(460.086,887.018)" x="0" y="0" /><path d="M 563.458,815.858 495.754,866.555 495.754,866.555 495.594,866.59 495.357,866.514 495.049,866.331 494.678,866.044 494.255,865.662 493.791,865.195 493.299,864.657 492.792,864.061 492.284,863.423 491.789,862.762 491.32,862.096 490.891,861.441 490.512,860.817 490.195,860.241 489.948,859.727 489.777,859.291 489.688,858.943 489.682,858.694 489.76,858.551 489.76,858.551 557.464,807.853 z" style="fill:#ccc;stroke:#888;stroke-width:2" /><circle r="40" style="fill:url(#grad-Fe);stroke:#664305;stroke-width:3" transform="translate(593.133,487.949)" x="0" y="0" /><path d="M 567.713,404.361 588.024,459.577 588.024,459.577 588.167,460.164 588.179,460.782 588.058,461.414 587.808,462.043 587.436,462.652 586.952,463.225 586.369,463.744 585.704,464.198 584.974,464.572 584.199,464.857 583.4,465.045 582.599,465.131 581.819,465.113 581.08,464.991 580.402,464.768 579.804,464.45 579.302,464.047 578.91,463.569 578.639,463.03 578.639,463.03 558.328,407.813 z" style="fill:#ccc;stroke:#888;stroke-width:2" /><path d="M 690.664,561.481 622.96,514.657 622.96,514.657 622.803,514.465 622.728,514.167 622.737,513.769 622.829,513.284 623.003,512.724 623.253,512.105 623.572,511.443 623.953,510.756 624.383,510.064 624.853,509.385 625.349,508.737 625.857,508.139 626.364,507.606 626.855,507.154 627.318,506.794 627.739,506.536 628.108,506.388 628.414,506.353 628.649,506.432 628.649,506.432 696.353,553.256 z" style="fill:#ccc;stroke:#888;stroke-width:2" /><circle r="40" style="fill:url(#grad-Sm);stroke:#051066;stroke-width:3" transform="translate(287.125,87.6113)" x="0" y="0" /><circle r="40" style="fill:url(#grad-Sm);stroke:#051066;stroke-width:3" transform="translate(726.18,280.523)" x="0" y="0" /><circle r="40" style="fill:url(#grad-O);stroke:#660505;stroke-width:3" transform="translate(593.133,787.391)" x="0" y="0" /><path d="M 567.713,703.803 588.024,759.019 588.024,759.019 588.167,759.606 588.179,760.224 588.058,760.856 587.808,761.485 587.436,762.094 586.952,762.666 586.369,763.186 585.704,763.639 584.974,764.014 584.199,764.299 583.4,764.487 582.599,764.573 581.819,764.555 581.08,764.432 580.402,764.21 579.804,763.892 579.302,763.489 578.91,763.011 578.639,762.471 578.639,762.471 558.328,707.255 z" style="fill:#ccc;stroke:#888;stroke-width:2" /><path d="M 690.664,860.923 622.96,814.099 622.96,814.099 622.803,813.907 622.728,813.609 622.737,813.211 622.829,812.726 623.003,812.166 623.253,811.546 623.572,810.884 623.953,810.198 624.383,809.506 624.853,808.826 625.349,808.179 625.857,807.581 626.364,807.048 626.855,806.596 627.318,806.236 627.739,805.978 628.108,805.83 628.414,805.795 628.649,805.874 628.649,805.874 696.353,852.698 z" style="fill:#ccc;stroke:#888;stroke-width:2" /><circle r="40" style="fill:url(#grad-As);stroke:#276605;stroke-width:3" transform="translate(287.125,387.053)" x="0" y="0" /><circle r="40" style="fill:url(#grad-As);stroke:#276605;stroke-width:3" transform="translate(726.18,579.964)" x="0" y="0" /><circle r="40" style="fill:url(#grad-Sm);stroke:#051066;stroke-width:3" transform="translate(287.125,686.495)" x="0" y="0" /><circle r="40" style="fill:url(#grad-Sm);stroke:#051066;stroke-width:3" transform="translate(726.18,879.406)" x="0" y="0" /><circle r="40" style="fill:url(#grad-Sm);stroke:#051066;stroke-width:3" transform="translate(553.219,80)" x="0" y="0" /><circle r="40" style="fill:url(#grad-As);stroke:#276605;stroke-width:3" transform="translate(553.219,379.442)" x="0" y="0" /><circle r="40" style="fill:url(#grad-Sm);stroke:#051066;stroke-width:3" transform="translate(553.219,678.884)" x="0" y="0" /></g></svg>